<svg width="600" height="1020" xmlns="http://www.w3.org/2000/svg" version="1.1"><g transform="translate(0, 10)"><g class="links" fill="none" stroke-opacity="0.4"><path d="M5,769.476622470342C151.25,769.476622470342,151.25,934.4766224703424,297.5,934.4766224703424" style="stroke: rgb(191, 105, 105);" stroke-width="21.04675505931612"></path><path d="M5,751.5143056524774C151.25,751.5143056524774,151.25,906.5143056524777,297.5,906.5143056524777" style="stroke: rgb(191, 105, 105);" stroke-width="14.877878576413119"></path><path d="M5,740.4466154919749C151.25,740.4466154919749,151.25,865.4466154919751,297.5,865.4466154919751" style="stroke: rgb(191, 105, 105);" stroke-width="0.7257501744591766"></path><path d="M5,743.3496161898117C151.25,743.3496161898117,151.25,888.349616189812,297.5,888.349616189812" style="stroke: rgb(191, 105, 105);" stroke-width="1.4515003489183531"></path><path d="M5,741.7166782972785C151.25,741.7166782972785,151.25,876.7166782972787,297.5,876.7166782972787" style="stroke: rgb(191, 105, 105);" stroke-width="1.8143754361479414"></path><path d="M5,719.0369853454292C151.25,719.0369853454292,151.25,769.1591067690164,297.5,769.1591067690164" style="stroke: rgb(191, 105, 105);" stroke-width="23.22400558269365"></path><path d="M5,739.5394277739009C151.25,739.5394277739009,151.25,854.5394277739011,297.5,854.5394277739011" style="stroke: rgb(191, 105, 105);" stroke-width="1.0886252616887648"></path><path d="M5,736.2735519888346C151.25,736.2735519888346,151.25,841.2735519888349,297.5,841.2735519888349" style="stroke: rgb(191, 105, 105);" stroke-width="5.443126308443825"></path><path d="M5,703.9776692254012C151.25,703.9776692254012,151.25,732.4877878576415,297.5,732.4877878576415" style="stroke: rgb(191, 105, 105);" stroke-width="6.894626657362178"></path><path d="M5,732.1004884856943C151.25,732.1004884856943,151.25,821.6573621772508,297.5,821.6573621772508" style="stroke: rgb(191, 105, 105);" stroke-width="2.9030006978367062"></path><path d="M5,679.4626657362178C151.25,679.4626657362178,151.25,804.5812979762738,297.5,804.5812979762738" style="stroke: rgb(191, 117, 105);" stroke-width="5.443126308443825"></path><path d="M5,687.8087927424983C151.25,687.8087927424983,151.25,835.830425680391,297.5,835.830425680391" style="stroke: rgb(191, 117, 105);" stroke-width="5.443126308443825"></path><path d="M5,676.1967899511515C151.25,676.1967899511515,151.25,791.3154221912075,297.5,791.3154221912075" style="stroke: rgb(191, 117, 105);" stroke-width="1.0886252616887648"></path><path d="M5,683.635729239358C151.25,683.635729239358,151.25,818.7543614794141,297.5,818.7543614794141" style="stroke: rgb(191, 117, 105);" stroke-width="2.9030006978367062"></path><path d="M5,594.7103977669226C151.25,594.7103977669226,151.25,649.7103977669227,297.5,649.7103977669227" style="stroke: rgb(191, 129, 105);" stroke-width="9.071877180739707"></path><path d="M5,623.1960921144454C151.25,623.1960921144454,151.25,688.1960921144454,297.5,688.1960921144454" style="stroke: rgb(191, 129, 105);" stroke-width="47.89951151430565"></path><path d="M5,581.4654570830427C151.25,581.4654570830427,151.25,616.4654570830429,297.5,616.4654570830429" style="stroke: rgb(191, 129, 105);" stroke-width="3.628750872295883"></path><path d="M5,659.8464759246339C151.25,659.8464759246339,151.25,751.7411025819961,297.5,751.7411025819961" style="stroke: rgb(191, 129, 105);" stroke-width="11.612002791346825"></path><path d="M5,578.7438939288206C151.25,578.7438939288206,151.25,603.7438939288209,297.5,603.7438939288209" style="stroke: rgb(191, 129, 105);" stroke-width="1.8143754361479414"></path><path d="M5,650.5931612002793C151.25,650.5931612002793,151.25,725.5931612002793,297.5,725.5931612002793" style="stroke: rgb(191, 129, 105);" stroke-width="6.894626657362178"></path><path d="M5,569.3091416608514C151.25,569.3091416608514,151.25,584.3091416608512,297.5,584.3091416608512" style="stroke: rgb(191, 129, 105);" stroke-width="17.055129099790648"></path><path d="M5,586.7271458478716C151.25,586.7271458478716,151.25,631.7271458478718,297.5,631.7271458478718" style="stroke: rgb(191, 129, 105);" stroke-width="6.894626657362178"></path><path d="M5,466.41311933007694C151.25,466.41311933007694,151.25,471.4131193300766,297.5,471.4131193300766" style="stroke: rgb(191, 141, 105);" stroke-width="27.21563154221912"></path><path d="M5,388.75785066294503C151.25,388.75785066294503,151.25,363.7578506629447,297.5,363.7578506629447" style="stroke: rgb(191, 141, 105);" stroke-width="17.055129099790648"></path><path d="M5,300.5792044661551C151.25,300.5792044661551,151.25,245.57920446615478,297.5,245.57920446615478" style="stroke: rgb(191, 141, 105);" stroke-width="29.392882065596652"></path><path d="M5,533.7264480111655C151.25,533.7264480111655,151.25,558.7264480111652,297.5,558.7264480111652" style="stroke: rgb(191, 141, 105);" stroke-width="34.110258199581295"></path><path d="M5,498.34612700628065C151.25,498.34612700628065,151.25,513.3461270062804,297.5,513.3461270062804" style="stroke: rgb(191, 141, 105);" stroke-width="36.650383810188416"></path><path d="M5,269.91625959525487C151.25,269.91625959525487,151.25,184.91625959525462,297.5,184.91625959525462" style="stroke: rgb(191, 141, 105);" stroke-width="2.9030006978367062"></path><path d="M5,282.2540125610609C151.25,282.2540125610609,151.25,217.25401256106056,297.5,217.25401256106056" style="stroke: rgb(191, 141, 105);" stroke-width="7.257501744591766"></path><path d="M5,274.99651081646914C151.25,274.99651081646914,151.25,199.9965108164688,297.5,199.9965108164688" style="stroke: rgb(191, 141, 105);" stroke-width="7.257501744591766"></path><path d="M5,263.02163293789266C151.25,263.02163293789266,151.25,158.0216329378923,297.5,158.0216329378923" style="stroke: rgb(191, 141, 105);" stroke-width="2.9030006978367062"></path><path d="M5,337.04815073272874C151.25,337.04815073272874,151.25,292.04815073272846,297.5,292.04815073272846" style="stroke: rgb(191, 141, 105);" stroke-width="43.5450104675506"></path><path d="M5,369.5254710397769C151.25,369.5254710397769,151.25,334.5254710397766,297.5,334.5254710397766" style="stroke: rgb(191, 141, 105);" stroke-width="21.40963014654571"></path><path d="M5,266.46894626657377C151.25,266.46894626657377,151.25,171.46894626657357,297.5,171.46894626657357" style="stroke: rgb(191, 141, 105);" stroke-width="3.991625959525471"></path><path d="M5,439.3789253314726C151.25,439.3789253314726,151.25,434.37892533147226,297.5,434.37892533147226" style="stroke: rgb(191, 141, 105);" stroke-width="26.85275645498953"></path><path d="M5,261.2072575017448C151.25,261.2072575017448,151.25,146.20725750174418,297.5,146.20725750174418" style="stroke: rgb(191, 141, 105);" stroke-width="0.7257501744591766"></path><path d="M5,411.6189811584091C151.25,411.6189811584091,151.25,396.6189811584089,297.5,396.6189811584089" style="stroke: rgb(191, 141, 105);" stroke-width="28.667131891137473"></path><path d="M5,220.5443126308445C151.25,220.5443126308445,151.25,55.544312630843926,297.5,55.544312630843926" style="stroke: rgb(191, 153, 105);" stroke-width="1.0886252616887648"></path><path d="M5,241.95394277739018C151.25,241.95394277739018,151.25,126.95394277738943,297.5,126.95394277738943" style="stroke: rgb(191, 153, 105);" stroke-width="17.780879274249827"></path><path d="M5,231.43056524773212C151.25,231.43056524773212,151.25,106.43056524773145,297.5,106.43056524773145" style="stroke: rgb(191, 153, 105);" stroke-width="3.2658757850662945"></path><path d="M5,224.71737613398477C151.25,224.71737613398477,151.25,79.71737613398408,297.5,79.71737613398408" style="stroke: rgb(191, 153, 105);" stroke-width="2.1772505233775297"></path><path d="M5,227.80181437543627C151.25,227.80181437543627,151.25,92.8018143754356,297.5,92.8018143754356" style="stroke: rgb(191, 153, 105);" stroke-width="3.991625959525471"></path><path d="M5,222.35868806699244C151.25,222.35868806699244,151.25,67.35868806699187,297.5,67.35868806699187" style="stroke: rgb(191, 153, 105);" stroke-width="2.540125610607118"></path><path d="M302.5,934.4766224703424C448.75,934.4766224703424,448.75,989.4766224703424,595,989.4766224703424" style="stroke: rgb(191, 165, 105);" stroke-width="21.04675505931612"></path><path d="M302.5,804.5812979762738C448.75,804.5812979762738,448.75,839.5812979762741,595,839.5812979762741" style="stroke: rgb(191, 177, 105);" stroke-width="5.443126308443825"></path><path d="M302.5,906.5143056524777C448.75,906.5143056524777,448.75,961.5143056524778,595,961.5143056524778" style="stroke: rgb(191, 189, 105);" stroke-width="14.877878576413119"></path><path d="M302.5,649.7103977669227C448.75,649.7103977669227,448.75,644.710397766923,595,644.710397766923" style="stroke: rgb(181, 191, 105);" stroke-width="9.071877180739707"></path><path d="M302.5,471.4131193300766C448.75,471.4131193300766,448.75,446.4131193300771,595,446.4131193300771" style="stroke: rgb(169, 191, 105);" stroke-width="27.21563154221912"></path><path d="M302.5,700.1709699930218C448.75,700.1709699930218,448.75,705.1709699930223,595,705.1709699930223" style="stroke: rgb(157, 191, 105);" stroke-width="23.949755757152825"></path><path d="M302.5,676.221214235869C448.75,676.221214235869,448.75,671.2212142358694,595,671.2212142358694" style="stroke: rgb(157, 191, 105);" stroke-width="23.949755757152825"></path><path d="M302.5,363.7578506629447C448.75,363.7578506629447,448.75,338.757850662945,595,338.757850662945" style="stroke: rgb(145, 191, 105);" stroke-width="17.055129099790648"></path><path d="M302.5,616.4654570830429C448.75,616.4654570830429,448.75,611.4654570830431,595,611.4654570830431" style="stroke: rgb(133, 191, 105);" stroke-width="3.628750872295883"></path><path d="M302.5,865.4466154919751C448.75,865.4466154919751,448.75,920.4466154919754,595,920.4466154919754" style="stroke: rgb(121, 191, 105);" stroke-width="0.7257501744591766"></path><path d="M302.5,888.349616189812C448.75,888.349616189812,448.75,943.3496161898121,595,943.3496161898121" style="stroke: rgb(109, 191, 105);" stroke-width="1.4515003489183531"></path><path d="M302.5,876.7166782972787C448.75,876.7166782972787,448.75,931.7166782972789,595,931.7166782972789" style="stroke: rgb(105, 191, 113);" stroke-width="1.8143754361479414"></path><path d="M302.5,774.9651081646898C448.75,774.9651081646898,448.75,809.9651081646899,595,809.9651081646899" style="stroke: rgb(105, 191, 125);" stroke-width="11.612002791346825"></path><path d="M302.5,763.3531053733429C448.75,763.3531053733429,448.75,788.3531053733432,595,788.3531053733432" style="stroke: rgb(105, 191, 125);" stroke-width="11.612002791346825"></path><path d="M302.5,751.7411025819961C448.75,751.7411025819961,448.75,766.7411025819963,595,766.7411025819963" style="stroke: rgb(105, 191, 125);" stroke-width="11.612002791346825"></path><path d="M302.5,255.37683182135362C448.75,255.37683182135362,448.75,220.3768318213539,595,220.3768318213539" style="stroke: rgb(105, 191, 137);" stroke-width="9.797627355198884"></path><path d="M302.5,245.57920446615475C448.75,245.57920446615475,448.75,200.57920446615492,595,200.57920446615492" style="stroke: rgb(105, 191, 137);" stroke-width="9.797627355198884"></path><path d="M302.5,235.78157711095588C448.75,235.78157711095588,448.75,180.78157711095616,595,180.78157711095616" style="stroke: rgb(105, 191, 137);" stroke-width="9.797627355198884"></path><path d="M302.5,584.3091416608512C448.75,584.3091416608512,448.75,579.3091416608518,595,579.3091416608518" style="stroke: rgb(105, 191, 149);" stroke-width="17.055129099790648"></path><path d="M302.5,567.2540125610606C448.75,567.2540125610606,448.75,552.2540125610612,595,552.2540125610612" style="stroke: rgb(105, 191, 149);" stroke-width="17.055129099790648"></path><path d="M302.5,550.1988834612699C448.75,550.1988834612699,448.75,525.1988834612708,595,525.1988834612708" style="stroke: rgb(105, 191, 149);" stroke-width="17.055129099790648"></path><path d="M302.5,841.2735519888349C448.75,841.2735519888349,448.75,896.2735519888352,595,896.2735519888352" style="stroke: rgb(105, 191, 161);" stroke-width="5.443126308443825"></path><path d="M302.5,835.830425680391C448.75,835.830425680391,448.75,880.8304256803913,595,880.8304256803913" style="stroke: rgb(105, 191, 161);" stroke-width="5.443126308443825"></path><path d="M302.5,513.3461270062804C448.75,513.3461270062804,448.75,488.3461270062809,595,488.3461270062809" style="stroke: rgb(105, 191, 173);" stroke-width="36.650383810188416"></path><path d="M302.5,184.91625959525462C448.75,184.91625959525462,448.75,129.9162595952549,595,129.9162595952549" style="stroke: rgb(105, 191, 185);" stroke-width="2.9030006978367062"></path><path d="M302.5,791.3154221912075C448.75,791.3154221912075,448.75,826.3154221912077,595,826.3154221912077" style="stroke: rgb(105, 185, 191);" stroke-width="1.0886252616887648"></path><path d="M302.5,854.5394277739011C448.75,854.5394277739011,448.75,909.5394277739015,595,909.5394277739015" style="stroke: rgb(105, 173, 191);" stroke-width="1.0886252616887648"></path><path d="M302.5,603.7438939288209C448.75,603.7438939288209,448.75,598.7438939288212,595,598.7438939288212" style="stroke: rgb(105, 161, 191);" stroke-width="1.8143754361479414"></path><path d="M302.5,217.25401256106056C448.75,217.25401256106056,448.75,162.25401256106085,595,162.25401256106085" style="stroke: rgb(105, 149, 191);" stroke-width="7.257501744591766"></path><path d="M302.5,732.4877878576415C448.75,732.4877878576415,448.75,747.4877878576417,595,747.4877878576417" style="stroke: rgb(105, 137, 191);" stroke-width="6.894626657362178"></path><path d="M302.5,725.5931612002793C448.75,725.5931612002793,448.75,730.5931612002796,595,730.5931612002796" style="stroke: rgb(105, 137, 191);" stroke-width="6.894626657362178"></path><path d="M302.5,55.544312630843926C448.75,55.544312630843926,448.75,0.5443126308439845,595,0.5443126308439845" style="stroke: rgb(105, 125, 191);" stroke-width="1.0886252616887648"></path><path d="M302.5,126.95394277738943C448.75,126.95394277738943,448.75,71.95394277738994,595,71.95394277738994" style="stroke: rgb(105, 113, 191);" stroke-width="17.780879274249827"></path><path d="M302.5,106.43056524773145C448.75,106.43056524773145,448.75,51.430565247731735,595,51.430565247731735" style="stroke: rgb(109, 105, 191);" stroke-width="3.2658757850662945"></path><path d="M302.5,199.9965108164688C448.75,199.9965108164688,448.75,144.99651081646908,595,144.99651081646908" style="stroke: rgb(121, 105, 191);" stroke-width="7.257501744591766"></path><path d="M302.5,821.6573621772508C448.75,821.6573621772508,448.75,866.657362177251,595,866.657362177251" style="stroke: rgb(133, 105, 191);" stroke-width="2.9030006978367062"></path><path d="M302.5,818.7543614794141C448.75,818.7543614794141,448.75,853.7543614794143,595,853.7543614794143" style="stroke: rgb(133, 105, 191);" stroke-width="2.9030006978367062"></path><path d="M302.5,79.71737613398408C448.75,79.71737613398408,448.75,24.717376133984363,595,24.717376133984363" style="stroke: rgb(145, 105, 191);" stroke-width="2.1772505233775297"></path><path d="M302.5,158.0216329378923C448.75,158.0216329378923,448.75,103.0216329378928,595,103.0216329378928" style="stroke: rgb(157, 105, 191);" stroke-width="2.9030006978367062"></path><path d="M302.5,302.9344033496161C448.75,302.9344033496161,448.75,277.9344033496164,595,277.9344033496164" style="stroke: rgb(169, 105, 191);" stroke-width="21.7725052337753"></path><path d="M302.5,281.1618981158408C448.75,281.1618981158408,448.75,246.1618981158411,595,246.1618981158411" style="stroke: rgb(169, 105, 191);" stroke-width="21.7725052337753"></path><path d="M302.5,334.5254710397766C448.75,334.5254710397766,448.75,309.5254710397769,595,309.5254710397769" style="stroke: rgb(181, 105, 191);" stroke-width="21.40963014654571"></path><path d="M302.5,631.7271458478718C448.75,631.7271458478718,448.75,626.7271458478721,595,626.7271458478721" style="stroke: rgb(191, 105, 189);" stroke-width="6.894626657362178"></path><path d="M302.5,171.46894626657357C448.75,171.46894626657357,448.75,116.46894626657384,595,116.46894626657384" style="stroke: rgb(191, 105, 177);" stroke-width="3.991625959525471"></path><path d="M302.5,434.37892533147226C448.75,434.37892533147226,448.75,409.3789253314728,595,409.3789253314728" style="stroke: rgb(191, 105, 165);" stroke-width="26.85275645498953"></path><path d="M302.5,146.20725750174418C448.75,146.20725750174418,448.75,91.20725750174492,595,91.20725750174492" style="stroke: rgb(191, 105, 153);" stroke-width="0.7257501744591766"></path><path d="M302.5,92.8018143754356C448.75,92.8018143754356,448.75,37.80181437543588,595,37.80181437543588" style="stroke: rgb(191, 105, 141);" stroke-width="3.991625959525471"></path><path d="M302.5,67.35868806699187C448.75,67.35868806699187,448.75,12.358688066991936,595,12.358688066991936" style="stroke: rgb(191, 105, 129);" stroke-width="2.540125610607118"></path><path d="M302.5,396.6189811584089C448.75,396.6189811584089,448.75,371.61898115840916,595,371.61898115840916" style="stroke: rgb(191, 105, 117);" stroke-width="28.667131891137473"></path></g><g class="nodes" font-family="Arial, Helvetica" font-size="11"><g><rect x="595" y="978.9532449406843" height="21.046755059316126" width="5" fill="#000"></rect><text x="589" y="989.4766224703424" dy="0.35em" text-anchor="end">ademhalingsstoornissen, immunologie, infectieziekten</text></g><g><rect x="595" y="836.8597348220521" height="5.44312630844388" width="5" fill="#000"></rect><text x="589" y="839.5812979762741" dy="0.35em" text-anchor="end">allergie, immunologie, infectieziekten</text></g><g><rect x="595" y="954.0753663642712" height="14.87787857641311" width="5" fill="#000"></rect><text x="589" y="961.5143056524778" dy="0.35em" text-anchor="end">astma, genen, immunologie</text></g><g><rect x="595" y="640.1744591765532" height="9.071877180739762" width="5" fill="#000"></rect><text x="589" y="644.710397766923" dy="0.35em" text-anchor="end">bloed, genen, celbiologie</text></g><g><rect x="595" y="432.8053035589675" height="27.21563154221917" width="5" fill="#000"></rect><text x="589" y="446.4131193300771" dy="0.35em" text-anchor="end">celbiologie, gentechnologie, plantenfysiologie</text></g><g><rect x="595" y="693.1960921144458" height="23.94975575715273" width="5" fill="#000"></rect><text x="589" y="705.1709699930223" dy="0.35em" text-anchor="end">enzymen, hormonen, hart- en vaatziekten</text></g><g><rect x="595" y="330.23028611304966" height="17.055129099790747" width="5" fill="#000"></rect><text x="589" y="338.75785066294503" dy="0.35em" text-anchor="end">genen, aardappelen, plantenfysiologie</text></g><g><rect x="595" y="609.6510816468951" height="3.628750872295882" width="5" fill="#000"></rect><text x="589" y="611.465457083043" dy="0.35em" text-anchor="end">genen, celbiologie</text></g><g><rect x="595" y="920.0837404047459" height="0.725750174459165" width="5" fill="#000"></rect><text x="589" y="920.4466154919754" dy="0.35em" text-anchor="end">genen, spierstelsel, hart- en vaatziekten</text></g><g><rect x="595" y="942.6238660153529" height="1.4515003489183584" width="5" fill="#000"></rect><text x="589" y="943.3496161898121" dy="0.35em" text-anchor="end">gist, moleculaire biologie, celbiologie</text></g><g><rect x="595" y="930.809490579205" height="1.814375436147941" width="5" fill="#000"></rect><text x="589" y="931.7166782972789" dy="0.35em" text-anchor="end">hart- en vaatziekten, kindergeneeskunde, risicoanalyse</text></g><g><rect x="595" y="804.1591067690165" height="11.612002791346868" width="5" fill="#000"></rect><text x="589" y="809.9651081646899" dy="0.35em" text-anchor="end">immunologie, celbiologie</text></g><g><rect x="595" y="215.47801814375447" height="9.797627355198983" width="5" fill="#000"></rect><text x="589" y="220.37683182135396" dy="0.35em" text-anchor="end">moleculaire biologie, bacteriën, plantenfysiologie</text></g><g><rect x="595" y="782.5471039776697" height="11.61200279134681" width="5" fill="#000"></rect><text x="589" y="788.3531053733432" dy="0.35em" text-anchor="end">moleculaire biologie, bloed, celbiologie</text></g><g><rect x="595" y="570.7815771109564" height="17.05512909979086" width="5" fill="#000"></rect><text x="589" y="579.3091416608518" dy="0.35em" text-anchor="end">moleculaire biologie, genen, plantenziekten</text></g><g><rect x="595" y="893.5519888346132" height="5.443126308443823" width="5" fill="#000"></rect><text x="589" y="896.2735519888352" dy="0.35em" text-anchor="end">moleculaire biologie, kankerbehandeling, tumoren</text></g><g><rect x="595" y="470.0209351011867" height="36.650383810188714" width="5" fill="#000"></rect><text x="589" y="488.34612700628105" dy="0.35em" text-anchor="end">plantengenetica, celbiologie, plantenfysiologie</text></g><g><rect x="595" y="128.46475924633654" height="2.90300069783666" width="5" fill="#000"></rect><text x="589" y="129.91625959525487" dy="0.35em" text-anchor="end">proteïnen, aminozuren, stofwisseling</text></g><g><rect x="595" y="825.7711095603634" height="1.088625261688776" width="5" fill="#000"></rect><text x="589" y="826.3154221912077" dy="0.35em" text-anchor="end">proteïnen, antigenen, celbiologie</text></g><g><rect x="595" y="908.9951151430571" height="1.088625261688776" width="5" fill="#000"></rect><text x="589" y="909.5394277739015" dy="0.35em" text-anchor="end">proteïnen, bacteriën, celbiologie</text></g><g><rect x="595" y="597.8367062107473" height="1.814375436147884" width="5" fill="#000"></rect><text x="589" y="598.7438939288212" dy="0.35em" text-anchor="end">proteïnen, celbiologie</text></g><g><rect x="595" y="195.68039078855548" height="9.797627355198983" width="5" fill="#000"></rect><text x="589" y="200.57920446615498" dy="0.35em" text-anchor="end">proteïnen, celbiologie, plantkunde</text></g><g><rect x="595" y="158.62526168876497" height="7.257501744591764" width="5" fill="#000"></rect><text x="589" y="162.25401256106085" dy="0.35em" text-anchor="end">proteïnen, darmkanker, voedingsleer</text></g><g><rect x="595" y="878.1088625261693" height="5.443126308443823" width="5" fill="#000"></rect><text x="589" y="880.8304256803913" dy="0.35em" text-anchor="end">proteïnen, dna, celbiologie</text></g><g><rect x="595" y="744.0404745289607" height="6.89462665736221" width="5" fill="#000"></rect><text x="589" y="747.4877878576417" dy="0.35em" text-anchor="end">proteïnen, dna, virussen</text></g><g><rect x="595" y="-3.979039320256561e-13" height="1.088625261688776" width="5" fill="#000"></rect><text x="589" y="0.5443126308439901" dy="0.35em" text-anchor="end">proteïnen, enzymen, lactococcen</text></g><g><rect x="595" y="727.1458478715986" height="6.894626657362153" width="5" fill="#000"></rect><text x="589" y="730.5931612002796" dy="0.35em" text-anchor="end">proteïnen, genen, bloed</text></g><g><rect x="595" y="63.06350314026503" height="17.78087927425031" width="5" fill="#000"></rect><text x="589" y="71.95394277739018" dy="0.35em" text-anchor="end">proteïnen, hart- en vaatziekten</text></g><g><rect x="595" y="49.797627355198586" height="3.2658757850664415" width="5" fill="#000"></rect><text x="589" y="51.430565247731806" dy="0.35em" text-anchor="end">proteïnen, lever(ziekten), gastro-enterologie</text></g><g><rect x="595" y="141.3677599441732" height="7.257501744591764" width="5" fill="#000"></rect><text x="589" y="144.99651081646908" dy="0.35em" text-anchor="end">proteïnen, membranen, virussen</text></g><g><rect x="595" y="543.7264480111659" height="17.05512909979052" width="5" fill="#000"></rect><text x="589" y="552.2540125610611" dy="0.35em" text-anchor="end">proteïnen, moleculaire biologie</text></g><g><rect x="595" y="865.2058618283327" height="2.90300069783666" width="5" fill="#000"></rect><text x="589" y="866.657362177251" dy="0.35em" text-anchor="end">proteïnen, moleculaire biologie, ademhalingsorganen</text></g><g><rect x="595" y="516.6713189113755" height="17.055129099790406" width="5" fill="#000"></rect><text x="589" y="525.1988834612707" dy="0.35em" text-anchor="end">proteïnen, moleculaire biologie, celbiologie</text></g><g><rect x="595" y="23.628750872295598" height="2.177250523377552" width="5" fill="#000"></rect><text x="589" y="24.717376133984374" dy="0.35em" text-anchor="end">proteïnen, moleculaire biologie, escherichia coli</text></g><g><rect x="595" y="101.57013258897445" height="2.90300069783666" width="5" fill="#000"></rect><text x="589" y="103.02163293789278" dy="0.35em" text-anchor="end">proteïnen, plantenfysiologie</text></g><g><rect x="595" y="267.04815073272874" height="21.77250523377529" width="5" fill="#000"></rect><text x="589" y="277.9344033496164" dy="0.35em" text-anchor="end">proteïnen, plantengenetica</text></g><g><rect x="595" y="175.88276343335673" height="9.797627355198756" width="5" fill="#000"></rect><text x="589" y="180.7815771109561" dy="0.35em" text-anchor="end">proteïnen, plantenziekten</text></g><g><rect x="595" y="298.82065596650403" height="21.409630146545624" width="5" fill="#000"></rect><text x="589" y="309.52547103977685" dy="0.35em" text-anchor="end">proteïnen, plantenziekten, moleculaire biologie</text></g><g><rect x="595" y="623.279832519191" height="6.89462665736221" width="5" fill="#000"></rect><text x="589" y="626.7271458478722" dy="0.35em" text-anchor="end">proteïnen, schildklier(ziekten), hormonen</text></g><g><rect x="595" y="114.4731332868111" height="3.991625959525436" width="5" fill="#000"></rect><text x="589" y="116.46894626657382" dy="0.35em" text-anchor="end">proteïnen, spectroscopie, biochemie</text></g><g><rect x="595" y="659.246336357293" height="23.949755757152843" width="5" fill="#000"></rect><text x="589" y="671.2212142358694" dy="0.35em" text-anchor="end">proteïnen, xenotransplantatie, immunologie</text></g><g><rect x="595" y="395.952547103978" height="26.852756454989503" width="5" fill="#000"></rect><text x="589" y="409.3789253314728" dy="0.35em" text-anchor="end">schimmels, plantenziekten, plantengenetica</text></g><g><rect x="595" y="235.27564549895345" height="21.77250523377529" width="5" fill="#000"></rect><text x="589" y="246.1618981158411" dy="0.35em" text-anchor="end">schimmels, plantenziekten, plantenveredeling</text></g><g><rect x="595" y="90.84438241451534" height="0.7257501744591082" width="5" fill="#000"></rect><text x="589" y="91.20725750174489" dy="0.35em" text-anchor="end">spectroscopie, celbiologie, plantenfysiologie</text></g><g><rect x="595" y="35.80600139567315" height="3.991625959525436" width="5" fill="#000"></rect><text x="589" y="37.80181437543587" dy="0.35em" text-anchor="end">stofwisseling, nierdialyse, proteïnen</text></g><g><rect x="595" y="852.302861130496" height="2.90300069783666" width="5" fill="#000"></rect><text x="589" y="853.7543614794143" dy="0.35em" text-anchor="end">stofwisseling, proteïnen, vetten</text></g><g><rect x="595" y="11.088625261688378" height="2.5401256106072196" width="5" fill="#000"></rect><text x="589" y="12.358688066991988" dy="0.35em" text-anchor="end">traumatologie, immunologie, infectieziekten</text></g><g><rect x="595" y="760.9351011863229" height="11.612002791346868" width="5" fill="#000"></rect><text x="589" y="766.7411025819963" dy="0.35em" text-anchor="end">vaccinatie, immunologie, celbiologie</text></g><g><rect x="595" y="357.2854152128404" height="28.667131891137615" width="5" fill="#000"></rect><text x="589" y="371.6189811584092" dy="0.35em" text-anchor="end">vissen, immunologie, celbiologie</text></g><g><rect x="297.5" y="355.2302861130494" height="17.055129099790747" width="5" fill="#000"></rect><text x="291.5" y="363.75785066294475" dy="0.35em" text-anchor="end">aardappelen, plantenfysiologie</text></g><g><rect x="297.5" y="801.8597348220519" height="5.443126308443823" width="5" fill="#000"></rect><text x="291.5" y="804.5812979762738" dy="0.35em" text-anchor="end">allergie</text></g><g><rect x="297.5" y="183.46475924633626" height="2.90300069783666" width="5" fill="#000"></rect><text x="291.5" y="184.9162595952546" dy="0.35em" text-anchor="end">aminozuren</text></g><g><rect x="297.5" y="145.8443824145146" height="0.7257501744593355" width="5" fill="#000"></rect><text x="291.5" y="146.20725750174427" dy="0.35em" text-anchor="end">analytische chemie</text></g><g><rect x="297.5" y="899.0753663642711" height="14.877878576413167" width="5" fill="#000"></rect><text x="291.5" y="906.5143056524777" dy="0.35em" text-anchor="end">astma, allergie</text></g><g><rect x="297.5" y="923.9532449406843" height="21.046755059316126" width="5" fill="#000"></rect><text x="291.5" y="934.4766224703424" dy="0.35em" text-anchor="end">astma, immunologie</text></g><g><rect x="297.5" y="156.57013258897393" height="2.9030006978368874" width="5" fill="#000"></rect><text x="291.5" y="158.02163293789238" dy="0.35em" text-anchor="end">biochemie</text></g><g><rect x="297.5" y="875.8094905792047" height="1.8143754361479978" width="5" fill="#000"></rect><text x="291.5" y="876.7166782972788" dy="0.35em" text-anchor="end">bloeddruk</text></g><g><rect x="297.5" y="664.2463363572925" height="47.899511514305686" width="5" fill="#000"></rect><text x="291.5" y="688.1960921144454" dy="0.35em" text-anchor="end">cardiologie</text></g><g><rect x="297.5" y="602.8367062107469" height="1.8143754361479978" width="5" fill="#000"></rect><text x="291.5" y="603.7438939288209" dy="0.35em" text-anchor="end">celbiologie</text></g><g><rect x="297.5" y="817.3028611304958" height="5.80600139567332" width="5" fill="#000"></rect><text x="291.5" y="820.2058618283324" dy="0.35em" text-anchor="end">cholesterol</text></g><g><rect x="297.5" y="213.62526168876468" height="7.257501744591764" width="5" fill="#000"></rect><text x="291.5" y="217.25401256106056" dy="0.35em" text-anchor="end">darmkanker</text></g><g><rect x="297.5" y="722.1458478715982" height="13.78925331472442" width="5" fill="#000"></rect><text x="291.5" y="729.0404745289604" dy="0.35em" text-anchor="end">dna</text></g><g><rect x="297.5" y="628.2798325191908" height="6.894626657362096" width="5" fill="#000"></rect><text x="291.5" y="631.7271458478718" dy="0.35em" text-anchor="end">enzymen</text></g><g><rect x="297.5" y="78.62875087229531" height="2.177250523377552" width="5" fill="#000"></rect><text x="291.5" y="79.71737613398409" dy="0.35em" text-anchor="end">escherichia coli</text></g><g><rect x="297.5" y="104.7976273551983" height="3.265875785066214" width="5" fill="#000"></rect><text x="291.5" y="106.43056524773141" dy="0.35em" text-anchor="end">geneesmiddelen</text></g><g><rect x="297.5" y="230.88276343335644" height="29.392882065596723" width="5" fill="#000"></rect><text x="291.5" y="245.5792044661548" dy="0.35em" text-anchor="end">genen</text></g><g><rect x="297.5" y="420.9525471039775" height="26.852756454989503" width="5" fill="#000"></rect><text x="291.5" y="434.37892533147226" dy="0.35em" text-anchor="end">genen, genexpressie</text></g><g><rect x="297.5" y="541.6713189113746" height="51.165387299372355" width="5" fill="#000"></rect><text x="291.5" y="567.2540125610608" dy="0.35em" text-anchor="end">genexpressie</text></g><g><rect x="297.5" y="382.2854152128401" height="28.667131891137387" width="5" fill="#000"></rect><text x="291.5" y="396.6189811584088" dy="0.35em" text-anchor="end">genexpressie, immunologie</text></g><g><rect x="297.5" y="270.27564549895317" height="43.54501046755058" width="5" fill="#000"></rect><text x="291.5" y="292.04815073272846" dy="0.35em" text-anchor="end">genexpressie, planten</text></g><g><rect x="297.5" y="323.82065596650375" height="21.409630146545624" width="5" fill="#000"></rect><text x="291.5" y="334.52547103977656" dy="0.35em" text-anchor="end">genexpressie, tarwe</text></g><g><rect x="297.5" y="887.6238660153527" height="1.45150034891833" width="5" fill="#000"></rect><text x="291.5" y="888.349616189812" dy="0.35em" text-anchor="end">gist</text></g><g><rect x="297.5" y="645.1744591765529" height="9.071877180739648" width="5" fill="#000"></rect><text x="291.5" y="649.7103977669227" dy="0.35em" text-anchor="end">hematologie</text></g><g><rect x="297.5" y="745.9351011863226" height="34.836008374040546" width="5" fill="#000"></rect><text x="291.5" y="763.3531053733429" dy="0.35em" text-anchor="end">immunologie</text></g><g><rect x="297.5" y="853.9951151430568" height="1.088625261688776" width="5" fill="#000"></rect><text x="291.5" y="854.5394277739011" dy="0.35em" text-anchor="end">kristallografie</text></g><g><rect x="297.5" y="614.6510816468949" height="3.628750872295882" width="5" fill="#000"></rect><text x="291.5" y="616.4654570830428" dy="0.35em" text-anchor="end">massaspectrometrie</text></g><g><rect x="297.5" y="54.999999999999545" height="1.088625261688776" width="5" fill="#000"></rect><text x="291.5" y="55.54431263084393" dy="0.35em" text-anchor="end">melk</text></g><g><rect x="297.5" y="196.36775994417292" height="7.257501744591764" width="5" fill="#000"></rect><text x="291.5" y="199.9965108164688" dy="0.35em" text-anchor="end">membranen</text></g><g><rect x="297.5" y="833.1088625261691" height="10.886252616887646" width="5" fill="#000"></rect><text x="291.5" y="838.551988834613" dy="0.35em" text-anchor="end">moleculaire biologie</text></g><g><rect x="297.5" y="457.805303558967" height="27.21563154221917" width="5" fill="#000"></rect><text x="291.5" y="471.4131193300766" dy="0.35em" text-anchor="end">moleculaire biologie, bloemen, genen, plantenveredeling</text></g><g><rect x="297.5" y="790.7711095603631" height="1.088625261688776" width="5" fill="#000"></rect><text x="291.5" y="791.3154221912075" dy="0.35em" text-anchor="end">salmonella</text></g><g><rect x="297.5" y="169.47313328681082" height="3.991625959525436" width="5" fill="#000"></rect><text x="291.5" y="171.46894626657354" dy="0.35em" text-anchor="end">spectroscopie</text></g><g><rect x="297.5" y="865.0837404047455" height="0.7257501744592219" width="5" fill="#000"></rect><text x="291.5" y="865.4466154919751" dy="0.35em" text-anchor="end">spier</text></g><g><rect x="297.5" y="90.80600139567287" height="3.991625959525436" width="5" fill="#000"></rect><text x="291.5" y="92.80181437543558" dy="0.35em" text-anchor="end">stofwisseling</text></g><g><rect x="297.5" y="495.0209351011862" height="36.65038381018837" width="5" fill="#000"></rect><text x="291.5" y="513.3461270062803" dy="0.35em" text-anchor="end">tabak, aardappelen, genexpressie, plantenveredeling</text></g><g><rect x="297.5" y="66.08862526168832" height="2.5401256106069923" width="5" fill="#000"></rect><text x="291.5" y="67.35868806699182" dy="0.35em" text-anchor="end">traumatologie</text></g><g><rect x="297.5" y="118.06350314026452" height="17.780879274250083" width="5" fill="#000"></rect><text x="291.5" y="126.95394277738956" dy="0.35em" text-anchor="end">urologie, hart- en vaatziekten</text></g><g><rect x="0" y="560.781577110956" height="104.87090020935102" width="5" fill="#000"></rect><text x="11" y="613.2170272156316" dy="0.35em" text-anchor="start">eur</text></g><g><rect x="0" y="220.0000000000001" height="30.844382414515053" width="5" fill="#000"></rect><text x="11" y="235.42219120725764" dy="0.35em" text-anchor="start">rug</text></g><g><rect x="0" y="675.6524773203071" height="14.877878576413082" width="5" fill="#000"></rect><text x="11" y="683.0914166085136" dy="0.35em" text-anchor="start">ul</text></g><g><rect x="0" y="700.5303558967202" height="79.46964410327983" width="5" fill="#000"></rect><text x="11" y="740.26517794836" dy="0.35em" text-anchor="start">uu</text></g><g><rect x="0" y="260.84438241451517" height="289.9371946964408" width="5" fill="#000"></rect><text x="11" y="405.8129797627356" dy="0.35em" text-anchor="start">wur</text></g></g></g></svg>